<svg id="Camada_1" data-name="Camada 1" xmlns="http://www.w3.org/2000/svg" viewBox="0 0 31.15 31.44"><defs><style>.cls-1,.cls-23{fill:#5061aa;}.cls-1,.cls-10,.cls-11,.cls-12,.cls-13,.cls-14,.cls-15,.cls-16,.cls-17,.cls-18,.cls-19,.cls-2,.cls-20,.cls-21,.cls-22,.cls-24,.cls-25,.cls-26,.cls-27,.cls-3,.cls-4,.cls-5,.cls-6,.cls-7,.cls-8,.cls-9{fill-rule:evenodd;}.cls-2{fill:#8b328a;}.cls-3{fill:#5d80c0;}.cls-4{fill:#e94e29;}.cls-5{fill:#d5262a;}.cls-6{fill:#f6a022;}.cls-7{fill:#6a95cd;}.cls-8{fill:#306fb6;}.cls-9{fill:#73c8dd;}.cls-10{fill:#92c143;}.cls-11{fill:#169bd6;}.cls-12{fill:#199aa6;}.cls-13{fill:#a5bfdf;}.cls-14{fill:#3fb7af;}.cls-15{fill:#ae2258;}.cls-16{fill:#79c199;}.cls-17{fill:#e5df1f;}.cls-18{fill:#33bacf;}.cls-19{fill:#6ca9db;}.cls-20{fill:#de5097;}.cls-21{fill:#604596;}.cls-22{fill:#fad803;}.cls-24{fill:#0bb8e7;}.cls-25{fill:#41ad4c;}.cls-26{fill:#e7b720;}.cls-27{fill:#b9cf37;}</style></defs><title>icon</title><polygon id="Path" class="cls-1" points="19.25 2.96 21.1 2.96 21.1 4.42 19.24 4.42 19.25 2.96"/><polygon id="Path-2" data-name="Path" class="cls-2" points="12.41 18.61 18.09 18.61 18.09 24.66 12.41 24.66 12.41 18.61"/><polygon id="Path-3" data-name="Path" class="cls-3" points="16.14 25.95 19.87 25.95 19.87 28.21 16.14 28.21 16.14 25.95"/><polygon id="Path-4" data-name="Path" class="cls-4" points="13.93 27.01 18.41 27.01 18.41 31.44 13.93 31.44 13.93 27.01"/><polygon id="Path-5" data-name="Path" class="cls-5" points="19.48 22.98 23.32 22.98 23.32 24.66 19.48 24.66 19.48 22.98"/><polygon id="Path-6" data-name="Path" class="cls-6" points="18.08 19.92 22.02 19.92 22.02 20.91 18.08 20.91 18.08 19.92"/><polygon id="Path-7" data-name="Path" class="cls-7" points="23.32 22.98 26.07 22.98 26.07 23.73 23.32 23.73 23.32 22.98"/><polygon id="Path-8" data-name="Path" class="cls-8" points="18.08 15.1 21.84 15.1 21.84 19.92 18.08 19.92 18.08 15.1"/><polygon id="Path-9" data-name="Path" class="cls-9" points="10.74 11.4 18.09 11.4 18.09 18.61 10.74 18.61 10.74 11.4"/><polygon id="Path-10" data-name="Path" class="cls-10" points="6.46 11.41 11.37 11.41 11.37 15.39 6.46 15.39 6.46 11.41"/><polygon id="Path-11" data-name="Path" class="cls-1" points="12.83 4.66 21.14 4.66 21.14 11.46 12.83 11.46 12.83 4.66"/><polygon id="Path-12" data-name="Path" class="cls-11" points="21.83 12.29 27.89 12.29 27.89 19.68 21.83 19.68 21.83 12.29"/><polygon id="Path-13" data-name="Path" class="cls-6" points="20.88 16.5 26.07 16.5 26.07 23 20.88 23 20.88 16.5"/><polygon id="Path-14" data-name="Path" class="cls-5" points="18.08 20.9 21.92 20.9 21.92 24.65 18.08 24.65 18.08 20.9"/><polygon id="Path-15" data-name="Path" class="cls-12" points="15.84 23.25 20.79 23.25 20.79 25.98 15.84 25.98 15.84 23.25"/><polygon id="Path-16" data-name="Path" class="cls-13" points="26.06 19.02 27.12 19.02 27.12 22.28 26.06 22.28 26.06 19.02"/><polygon id="Path-17" data-name="Path" class="cls-14" points="27.89 12.06 30.66 12.06 30.66 13.77 27.89 13.77 27.89 12.06"/><polygon id="Path-18" data-name="Path" class="cls-15" points="27.63 13.77 29.63 13.77 29.63 14.88 27.63 14.88 27.63 13.77"/><polygon id="Path-19" data-name="Path" class="cls-16" points="18.08 8.52 21.84 8.52 21.84 15.11 18.08 15.11 18.08 8.52"/><polygon id="Path-20" data-name="Path" class="cls-17" points="21.83 5.86 26.89 5.86 26.89 12.29 21.84 12.29 21.83 5.86"/><polygon id="Path-21" data-name="Path" class="cls-18" points="21.14 4.66 24.82 4.66 24.82 10.68 21.14 10.68 21.14 4.66"/><polygon id="Path-22" data-name="Path" class="cls-19" points="26.12 10.52 31.15 10.52 31.15 12.29 26.12 12.29 26.12 10.52"/><polygon id="Path-23" data-name="Path" class="cls-20" points="26.9 6.64 29.3 6.64 29.3 10.52 26.9 10.52 26.9 6.64"/><polygon id="Path-24" data-name="Path" class="cls-21" points="28.58 7.86 30.8 7.86 30.8 9.49 28.58 9.49 28.58 7.86"/><polygon id="Path-25" data-name="Path" class="cls-22" points="28 9.49 31.15 9.49 31.15 11.11 28 11.11 28 9.49"/><path id="Shape" class="cls-23" d="M67.11,3.39H69V4.92H67.11Zm-6.4,0h3.43V7.24H60.71Z" transform="translate(-47.88 -0.5)"/><polygon id="Path-26" data-name="Path" class="cls-24" points="2.23 2.94 12.84 2.94 12.84 11.46 2.23 11.46 2.23 2.94"/><polygon id="Path-27" data-name="Path" class="cls-25" points="7.67 0 11.37 0 11.37 4.8 7.67 4.8 7.67 0"/><polygon id="Path-28" data-name="Path" class="cls-26" points="0 10.73 6.85 10.73 6.85 13.4 0 13.4 0 10.73"/><polygon id="Path-29" data-name="Path" class="cls-27" points="16.25 0.44 18.91 0.44 18.91 4.66 16.25 4.66 16.25 0.44"/><polygon id="Path-30" data-name="Path" class="cls-10" points="19.8 16.5 20.88 16.5 20.88 17.57 19.8 17.57 19.8 16.5"/></svg>